<svg width="1200" height="630" viewBox="0 0 1200 630" fill="none" xmlns="http://www.w3.org/2000/svg">
  <defs>
    <linearGradient id="bg" x1="88" y1="48" x2="1020" y2="646" gradientUnits="userSpaceOnUse">
      <stop stop-color="#07101C"/>
      <stop offset="0.5" stop-color="#10253F"/>
      <stop offset="1" stop-color="#0D1727"/>
    </linearGradient>
    <radialGradient id="glowA" cx="0" cy="0" r="1" gradientUnits="userSpaceOnUse" gradientTransform="translate(290 120) rotate(28.9583) scale(284.384 221.942)">
      <stop stop-color="#FDE68A" stop-opacity="0.22"/>
      <stop offset="1" stop-color="#FDE68A" stop-opacity="0"/>
    </radialGradient>
    <radialGradient id="glowB" cx="0" cy="0" r="1" gradientUnits="userSpaceOnUse" gradientTransform="translate(944 114) rotate(142.695) scale(318.441 250.458)">
      <stop stop-color="#38BDF8" stop-opacity="0.2"/>
      <stop offset="1" stop-color="#38BDF8" stop-opacity="0"/>
    </radialGradient>
    <linearGradient id="mark-bg" x1="0" y1="0" x2="148" y2="148" gradientUnits="userSpaceOnUse">
      <stop stop-color="#FDE68A"/>
      <stop offset="0.48" stop-color="#A7F3D0"/>
      <stop offset="1" stop-color="#38BDF8"/>
    </linearGradient>
  </defs>

  <rect width="1200" height="630" rx="40" fill="url(#bg)"/>
  <rect width="1200" height="630" rx="40" fill="url(#glowA)"/>
  <rect width="1200" height="630" rx="40" fill="url(#glowB)"/>

  <g transform="translate(88 96)">
    <rect width="148" height="148" rx="40" fill="url(#mark-bg)"/>
    <path d="M43 35C43 24.5066 51.5066 16 62 16H90V113H43V35Z" fill="#08111D"/>
    <path d="M112 21H131.455C145.371 21 158.716 26.5275 168.559 36.366L181 48.8015V55H134.5C121.521 55 111 44.4787 111 31.5V21H112Z" fill="#08111D"/>
    <path d="M112 69H184V127C184 137.493 175.493 146 165 146H112V69Z" fill="#08111D"/>
  </g>

  <text x="274" y="170" fill="#F8FAFC" font-family="Helvetica, Arial, sans-serif" font-size="94" font-weight="800" letter-spacing="-4">Lexio</text>
  <text x="278" y="228" fill="#B7CCE4" font-family="Helvetica, Arial, sans-serif" font-size="28" font-weight="500">AI reading companion</text>

  <text x="88" y="340" fill="#FFFFFF" font-family="Helvetica, Arial, sans-serif" font-size="58" font-weight="780" letter-spacing="-1.8">Understand while you read.</text>
  <text x="88" y="396" fill="#D8E5F4" font-family="Helvetica, Arial, sans-serif" font-size="25" font-weight="500">Immersive translation, vocabulary capture, and cross-device language learning.</text>

  <g transform="translate(768 116)">
    <rect width="348" height="238" rx="30" fill="rgba(255,255,255,0.05)" stroke="rgba(255,255,255,0.08)"/>
    <text x="28" y="56" fill="#F8FAFC" font-family="Helvetica, Arial, sans-serif" font-size="20" font-weight="700">Brand shift</text>
    <text x="28" y="104" fill="#C8D7EA" font-family="Helvetica, Arial, sans-serif" font-size="23" font-weight="600">One name</text>
    <text x="28" y="136" fill="#E2ECF8" font-family="Helvetica, Arial, sans-serif" font-size="17" font-weight="500">Lexio across the app, docs, and visuals.</text>
    <text x="28" y="188" fill="#C8D7EA" font-family="Helvetica, Arial, sans-serif" font-size="23" font-weight="600">No mascot</text>
    <text x="28" y="220" fill="#E2ECF8" font-family="Helvetica, Arial, sans-serif" font-size="17" font-weight="500">Clean product geometry replaces the frog face.</text>
  </g>
</svg>
